<svg xmlns="http://www.w3.org/2000/svg" width="222" height="222" fill="none"><path fill="#003588" d="m122.093 5.345 2.216.351 2.447 6.413.139.022 4.308-5.343 2.216.351-5.935 7.111-.803 5.076-1.945-.308.804-5.076-3.447-8.597Zm13.783 15.953 4.045-12.45 7.806 2.536-.526 1.617-5.927-1.926-1.232 3.793 5.52 1.794-.524 1.611-5.52-1.793-1.238 3.811 6 1.95-.526 1.617-7.878-2.56Zm13.82 5.043-1.868-.951 10.141-9.526 2.033 1.036-1.745 13.803-1.868-.952 1.566-11.225-.092-.047-8.167 7.863Zm2.641-4.408 6.06 3.088-.755 1.48-6.059-3.087.754-1.48Zm9.637 11.147 7.694-10.591 3.775 2.742c.821.597 1.399 1.233 1.735 1.909.339.678.462 1.365.367 2.06-.091.692-.374 1.364-.847 2.015-.471.648-1.022 1.12-1.653 1.415-.624.294-1.308.38-2.05.256-.739-.12-1.519-.48-2.34-1.075l-2.86-2.078 1-1.375 2.715 1.972c.517.376.991.607 1.423.694.435.09.832.049 1.189-.124.357-.172.679-.457.967-.853.291-.4.465-.803.523-1.209a1.858 1.858 0 0 0-.231-1.194c-.208-.394-.577-.783-1.104-1.166l-2.007-1.458-6.699 9.22-1.597-1.16Zm8.699-.98-.855 6.68-1.82-1.323.907-6.642 1.768 1.285Zm14.736 8.138c.379-.476.512-1.006.398-1.59-.112-.589-.433-1.147-.963-1.678-.38-.38-.769-.648-1.166-.804-.395-.16-.773-.213-1.135-.158a1.63 1.63 0 0 0-.926.474c-.22.22-.359.461-.416.723a1.96 1.96 0 0 0 .009.814c.066.277.161.55.285.818.126.265.257.51.393.737l.669 1.139c.223.367.428.768.614 1.202.187.434.312.884.376 1.351.063.468.027.931-.109 1.392-.132.465-.407.904-.822 1.32-.525.525-1.126.855-1.804.99-.675.139-1.386.07-2.133-.208-.745-.274-1.478-.773-2.201-1.496-.693-.693-1.183-1.403-1.469-2.129-.287-.726-.371-1.434-.254-2.124.121-.693.445-1.333.972-1.92l1.401 1.4c-.307.362-.477.749-.51 1.162a2.49 2.49 0 0 0 .244 1.23c.196.406.473.789.831 1.147.395.395.808.684 1.239.868.437.184.856.253 1.256.208a1.756 1.756 0 0 0 1.058-.524c.274-.275.42-.577.438-.909.022-.328-.043-.682-.194-1.062a8.624 8.624 0 0 0-.588-1.193l-.795-1.392c-.539-.944-.83-1.828-.872-2.654-.039-.822.263-1.556.908-2.2.534-.534 1.144-.855 1.831-.963.687-.109 1.387-.026 2.101.248.718.271 1.387.717 2.007 1.338.627.627 1.07 1.29 1.329 1.989.262.702.339 1.384.231 2.047a3.243 3.243 0 0 1-.886 1.754l-1.347-1.347Zm16.924 30.747c-1.245.634-2.432.952-3.56.953-1.124 0-2.13-.275-3.016-.823-.881-.546-1.578-1.322-2.091-2.328-.514-1.01-.734-2.034-.66-3.071.079-1.036.451-2.01 1.115-2.922.664-.912 1.617-1.684 2.858-2.317 1.246-.635 2.431-.951 3.555-.95 1.128-.001 2.133.271 3.014.817.886.548 1.587 1.327 2.101 2.337.513 1.006.73 2.027.65 3.062-.074 1.038-.443 2.012-1.107 2.925-.66.91-1.613 1.682-2.859 2.317Zm-.887-1.743c.949-.484 1.67-1.045 2.162-1.683.498-.636.779-1.306.843-2.007.069-.7-.067-1.385-.408-2.053-.342-.672-.817-1.186-1.424-1.541-.603-.358-1.309-.524-2.119-.499-.804.027-1.68.283-2.63.766-.949.484-1.673 1.044-2.171 1.68-.493.639-.773 1.308-.842 2.008-.066.698.073 1.383.416 2.055.34.668.812 1.181 1.415 1.539.609.36 1.315.525 2.119.498.81-.025 1.689-.28 2.639-.763Zm-3.252 9.157 12.45-4.045 2.508 7.72-1.617.526-1.898-5.843-3.793 1.233 1.718 5.289-1.611.523-1.718-5.289-5.429 1.764-.61-1.878ZM204 106.938h13.091v8.208h-1.7v-6.233h-3.989v5.804h-1.694v-5.804H205.7v6.309H204v-8.284Zm12.284 17.509-5.547 2.293-.016.101 4.567 3.895-.358 2.26-5.827-5.052-7.107 3.029.36-2.273 5.479-2.316.016-.101-4.495-3.896.36-2.273 5.812 5.147 7.114-3.074-.358 2.26Zm-15.426 10.952 12.45 4.046-1.442 4.437c-.315.969-.752 1.714-1.311 2.236a3.607 3.607 0 0 1-1.911.958c-.711.119-1.447.055-2.209-.193-.766-.249-1.403-.633-1.911-1.152-.505-.514-.832-1.148-.98-1.905-.146-.751-.062-1.608.251-2.573l.992-3.052 1.592.518-.936 2.881c-.199.612-.255 1.143-.168 1.593.091.45.292.825.603 1.123.311.298.701.524 1.172.676.47.153.916.2 1.339.14.422-.06.8-.249 1.131-.567.331-.314.598-.783.8-1.407l.767-2.358-10.839-3.522.61-1.879Zm-5.15 14.203 11.664 5.943-3.726 7.313-1.515-.772 2.83-5.553-3.554-1.811-2.635 5.172-1.509-.769 2.635-5.172-3.571-1.819-2.865 5.621-1.515-.772 3.761-7.381Zm-6.788 12.372 10.591 7.695-2.743 3.775c-.596.82-1.232 1.398-1.908 1.734-.679.34-1.365.462-2.061.368-.691-.092-1.363-.375-2.015-.848-.648-.471-1.12-1.022-1.415-1.652-.294-.625-.379-1.308-.256-2.051.121-.739.48-1.519 1.076-2.339l2.077-2.86 1.376.999-1.972 2.715c-.376.517-.608.992-.695 1.424-.09.435-.048.831.124 1.188.173.357.457.68.854.968.4.29.802.464 1.208.522.403.061.802-.015 1.195-.23.394-.209.782-.577 1.166-1.105l1.457-2.006-9.22-6.699 1.161-1.598Zm.98 8.7-6.68-.855 1.323-1.82 6.642.906-1.285 1.769Zm-4.528 15.987-9.257-9.257 1.397-1.396 9.257 9.256-1.397 1.397Zm-16.421-2.812 7.694 10.591-6.64 4.824-.999-1.375 5.042-3.663-2.344-3.227-4.696 3.411-.996-1.37 4.696-3.412-2.356-3.242-5.104 3.708-.999-1.375 6.702-4.87Zm-14.245 23.949-5.943-11.664 1.617-.824 10.288 5.534.108-.055-4.359-8.555 1.76-.897 5.943 11.665-1.629.83-10.299-5.542-.108.055 4.365 8.565-1.743.888Zm-17.289 1.695 1.897-.616a3.048 3.048 0 0 0 1.739 1.485c.358.121.733.178 1.125.172a3.965 3.965 0 0 0 1.178-.201c.717-.234 1.301-.623 1.751-1.168.446-.543.72-1.217.822-2.021.098-.802-.016-1.706-.343-2.711-.329-1.013-.769-1.816-1.32-2.408-.555-.59-1.174-.971-1.857-1.144a3.703 3.703 0 0 0-2.089.088 4.056 4.056 0 0 0-1.067.521c-.321.225-.591.49-.811.794a3.057 3.057 0 0 0-.554 2.204l-1.899.61a5.345 5.345 0 0 1 .041-1.882 4.91 4.91 0 0 1 .682-1.687 5.28 5.28 0 0 1 1.265-1.358 6.018 6.018 0 0 1 1.798-.921c1.078-.35 2.122-.407 3.131-.17 1.01.241 1.914.76 2.711 1.559.793.8 1.405 1.862 1.835 3.187.432 1.33.56 2.55.383 3.66-.176 1.114-.602 2.064-1.279 2.849-.676.788-1.551 1.357-2.625 1.706a6.116 6.116 0 0 1-1.941.315 5.134 5.134 0 0 1-1.818-.323 4.787 4.787 0 0 1-1.568-.956 5.411 5.411 0 0 1-1.187-1.584Zm-7.856-7.273 2.047 12.93-8.106 1.284-.266-1.68 6.156-.975-.624-3.939-5.733.908-.265-1.673 5.733-.908-.627-3.959-6.232.987-.266-1.679 8.183-1.296Zm-29.654 14.435-2.216-.351-2.447-6.413-.139-.022-4.308 5.343-2.216-.351 5.934-7.111.805-5.076 1.944.308-.804 5.076 3.447 8.597Zm-13.782-15.953-4.046 12.45-7.805-2.536.525-1.617 5.927 1.926 1.233-3.793-5.52-1.794.523-1.611 5.52 1.794 1.239-3.812-6-1.95.525-1.617 7.879 2.56Zm-13.822-5.044 1.869.952-10.141 9.526-2.033-1.036 1.745-13.803 1.869.952-1.566 11.225.09.047 8.168-7.863Zm-2.64 4.409-6.06-3.088.755-1.481 6.06 3.088-.755 1.481Zm-9.637-11.147-7.694 10.591-3.775-2.742c-.82-.597-1.399-1.233-1.735-1.909-.34-.678-.462-1.365-.367-2.06.092-.692.374-1.364.848-2.015.47-.648 1.021-1.12 1.652-1.415.624-.294 1.308-.38 2.05-.256.74.121 1.52.479 2.34 1.075l2.86 2.078-1 1.376-2.715-1.973c-.517-.376-.991-.607-1.423-.694-.435-.09-.831-.049-1.189.124-.357.172-.68.457-.967.853-.29.4-.465.803-.523 1.209-.061.403.016.801.23 1.194.21.394.578.783 1.105 1.166l2.007 1.458 6.699-9.22 1.597 1.16Zm-8.7.98.856-6.679 1.82 1.322-.907 6.642-1.768-1.285Zm-14.735-8.138c-.38.476-.512 1.006-.398 1.591.112.587.433 1.146.963 1.677.38.379.769.648 1.166.804.395.16.773.213 1.135.158.355-.054.664-.212.926-.474.22-.22.359-.461.416-.723a1.953 1.953 0 0 0-.009-.814 4.392 4.392 0 0 0-.285-.818 8.843 8.843 0 0 0-.393-.737l-.669-1.139a9.718 9.718 0 0 1-.614-1.202 5.15 5.15 0 0 1-.376-1.351 3.311 3.311 0 0 1 .109-1.393c.132-.464.407-.904.823-1.319.524-.525 1.125-.855 1.803-.99.675-.139 1.386-.069 2.133.208.745.274 1.478.773 2.201 1.496.694.693 1.183 1.402 1.47 2.129.286.726.37 1.434.253 2.124-.121.693-.445 1.333-.972 1.921l-1.401-1.401c.307-.362.477-.749.51-1.162a2.485 2.485 0 0 0-.244-1.229 4.2 4.2 0 0 0-.831-1.148c-.395-.395-.808-.684-1.239-.868-.437-.184-.856-.253-1.256-.208a1.757 1.757 0 0 0-1.058.524c-.274.275-.42.577-.438.909-.022.328.043.682.194 1.062.148.377.343.774.587 1.193l.796 1.392c.54.943.83 1.828.872 2.653.04.823-.263 1.557-.908 2.202-.533.533-1.144.854-1.83.962-.688.109-1.388.026-2.102-.248-.718-.271-1.386-.717-2.007-1.338-.627-.627-1.07-1.29-1.33-1.989-.261-.702-.338-1.384-.23-2.047.106-.66.401-1.245.886-1.754l1.347 1.347Zm-16.924-30.747c1.245-.634 2.432-.952 3.56-.953 1.125.001 2.13.275 3.017.823.88.546 1.577 1.322 2.09 2.328.515 1.01.735 2.034.66 3.071-.079 1.036-.45 2.01-1.115 2.922-.664.912-1.616 1.684-2.858 2.317-1.245.635-2.43.951-3.555.95-1.128.001-2.132-.271-3.013-.817-.887-.548-1.587-1.327-2.102-2.337-.513-1.006-.73-2.027-.65-3.062.075-1.038.444-2.012 1.108-2.925.66-.91 1.613-1.682 2.858-2.317Zm.888 1.743c-.95.484-1.67 1.045-2.163 1.683-.498.636-.779 1.306-.842 2.007-.07.7.067 1.385.407 2.053.343.672.817 1.186 1.424 1.541.603.358 1.31.524 2.12.499.803-.027 1.68-.283 2.63-.766.948-.484 1.672-1.044 2.17-1.681.493-.638.774-1.307.843-2.007.065-.698-.074-1.383-.416-2.055-.34-.668-.812-1.181-1.415-1.539-.61-.359-1.316-.525-2.12-.498-.81.025-1.689.279-2.638.763Zm3.252-9.157-12.45 4.045-2.508-7.72 1.617-.526 1.898 5.843 3.793-1.233-1.718-5.289 1.61-.523 1.72 5.289 5.428-1.764.61 1.878ZM18 115.062H4.91v-8.208h1.7v6.233h3.988v-5.804h1.694v5.804H16.3v-6.309H18v8.284ZM5.717 97.553l5.547-2.293.016-.101-4.567-3.895.358-2.26 5.827 5.052 7.107-3.03-.36 2.274-5.48 2.316-.016.101 4.496 3.896-.36 2.273-5.812-5.147-7.114 3.074.358-2.26ZM21.142 86.6l-12.45-4.045 1.442-4.437c.314-.969.752-1.714 1.31-2.236a3.614 3.614 0 0 1 1.912-.958c.71-.119 1.447-.055 2.209.193.766.249 1.403.633 1.91 1.152.506.513.833 1.148.981 1.905.146.75.062 1.608-.251 2.573l-.992 3.052-1.592-.518.936-2.882c.199-.611.255-1.142.168-1.592a2.088 2.088 0 0 0-.603-1.123 3.001 3.001 0 0 0-1.171-.676 2.96 2.96 0 0 0-1.34-.14c-.423.06-.8.249-1.132.567-.33.314-.597.782-.8 1.407l-.766 2.358 10.84 3.522-.61 1.879Zm5.151-14.202-11.664-5.943 3.726-7.313 1.515.772-2.83 5.553 3.554 1.81 2.635-5.17 1.51.769-2.636 5.17 3.571 1.82 2.864-5.62 1.515.771-3.76 7.381Zm6.787-12.372-10.59-7.695 2.743-3.775c.596-.82 1.232-1.398 1.908-1.734.678-.34 1.365-.462 2.06-.368.692.092 1.364.375 2.015.848.648.47 1.12 1.022 1.415 1.652.294.625.38 1.308.256 2.05-.12.74-.48 1.52-1.075 2.34l-2.078 2.86-1.376-1 1.973-2.714c.376-.517.607-.992.694-1.424.09-.435.049-.831-.124-1.188-.172-.357-.457-.68-.853-.968-.4-.29-.803-.464-1.209-.522a1.857 1.857 0 0 0-1.194.23c-.394.209-.783.577-1.166 1.105l-1.458 2.006 9.22 6.7-1.16 1.597Zm-.98-8.7 6.68.855-1.322 1.82-6.642-.906 1.285-1.769Zm4.529-15.991 9.256 9.257-1.396 1.396-9.257-9.256 1.397-1.397Zm16.421 2.812-7.694-10.591 6.64-4.824.999 1.375-5.042 3.663 2.344 3.227 4.696-3.411.996 1.37-4.696 3.412 2.356 3.242 5.104-3.708 1 1.375-6.703 4.87Zm14.245-23.946 5.943 11.665-1.618.824-10.287-5.534-.108.055 4.358 8.555-1.76.897-5.943-11.665 1.63-.83 10.298 5.543.108-.056-4.364-8.566 1.743-.888Zm17.288-1.694-1.897.616a3.05 3.05 0 0 0-1.739-1.484 3.307 3.307 0 0 0-1.125-.173 3.97 3.97 0 0 0-1.178.202c-.717.233-1.3.622-1.75 1.167-.447.543-.72 1.217-.823 2.02-.097.803.017 1.707.344 2.712.329 1.013.769 1.816 1.32 2.408.554.59 1.173.971 1.856 1.144.684.172 1.38.143 2.09-.088a4.084 4.084 0 0 0 1.067-.521c.32-.225.59-.49.81-.794a3.06 3.06 0 0 0 .554-2.203l1.9-.61a5.34 5.34 0 0 1-.041 1.88 4.906 4.906 0 0 1-.682 1.688c-.33.515-.752.968-1.266 1.358a6.005 6.005 0 0 1-1.798.92c-1.078.351-2.121.408-3.13.171-1.01-.24-1.914-.76-2.711-1.559-.793-.8-1.405-1.862-1.836-3.187-.432-1.33-.56-2.55-.382-3.66.175-1.114.602-2.064 1.279-2.849.675-.788 1.55-1.357 2.624-1.706a6.108 6.108 0 0 1 1.941-.315c.636 0 1.242.107 1.819.323a4.782 4.782 0 0 1 1.567.956c.469.422.864.95 1.187 1.584Zm7.857 7.273L90.393 6.85l8.106-1.284.266 1.68-6.156.975.624 3.94 5.733-.909.265 1.673-5.733.908.627 3.959 6.232-.987.265 1.68-8.182 1.295Z"/></svg>