<svg xmlns="http://www.w3.org/2000/svg" width="28" height="20" fill="none"><path fill="url(#a)" d="m12.255 6.004-.015-.016a1.71 1.71 0 0 0-.202-.166 2.283 2.283 0 0 0-.49-.258 1.89 1.89 0 0 0-1.249-.051c-.975.294-1.535 1.073-1.895 2.207-.16.897-.145 2.622.676 3.434.241.268.765.61 1.436 1.046 1.411.918 3.475 2.26 4.935 4.25 1.045 1.332-.01 2.616-.527 2.9-.72.392-1.423.665-2.262 0-.84-.667-2.181-1.624-3.636-1.368-1.456.256-2.03.352-2.88.352H1.8a1.8 1.8 0 0 1-1.8-1.8V12.02c0-1.957 1.23-4.44 3.197-5.122.638-.222 1.242-.634 1.5-1.258.681-1.649 1.942-3.41 4.388-4.149 2.983-.9 5.438.691 6.374 1.796a2.1 2.1 0 0 1-3.204 2.716Z"/><path fill="url(#b)" d="m12.255 6.004-.015-.016a1.71 1.71 0 0 0-.202-.166 2.283 2.283 0 0 0-.49-.258 1.89 1.89 0 0 0-1.249-.051c-.975.294-1.535 1.073-1.895 2.207-.16.897-.145 2.622.676 3.434.241.268.765.61 1.436 1.046 1.411.918 3.475 2.26 4.935 4.25 1.045 1.332-.01 2.616-.527 2.9-.72.392-1.423.665-2.262 0-.84-.667-2.181-1.624-3.636-1.368-1.456.256-2.03.352-2.88.352H1.8a1.8 1.8 0 0 1-1.8-1.8V12.02c0-1.957 1.23-4.44 3.197-5.122.638-.222 1.242-.634 1.5-1.258.681-1.649 1.942-3.41 4.388-4.149 2.983-.9 5.438.691 6.374 1.796a2.1 2.1 0 0 1-3.204 2.716Z"/><path fill="url(#c)" d="m12.255 6.004-.015-.016a1.71 1.71 0 0 0-.202-.166 2.283 2.283 0 0 0-.49-.258 1.89 1.89 0 0 0-1.249-.051c-.975.294-1.535 1.073-1.895 2.207-.16.897-.145 2.622.676 3.434.241.268.765.61 1.436 1.046 1.411.918 3.475 2.26 4.935 4.25 1.045 1.332-.01 2.616-.527 2.9-.72.392-1.423.665-2.262 0-.84-.667-2.181-1.624-3.636-1.368-1.456.256-2.03.352-2.88.352H1.8a1.8 1.8 0 0 1-1.8-1.8V12.02c0-1.957 1.23-4.44 3.197-5.122.638-.222 1.242-.634 1.5-1.258.681-1.649 1.942-3.41 4.388-4.149 2.983-.9 5.438.691 6.374 1.796a2.1 2.1 0 0 1-3.204 2.716Z"/><path fill="url(#d)" d="m12.255 6.004-.015-.016a1.71 1.71 0 0 0-.202-.166 2.283 2.283 0 0 0-.49-.258 1.89 1.89 0 0 0-1.249-.051c-.975.294-1.535 1.073-1.895 2.207-.16.897-.145 2.622.676 3.434.241.268.765.61 1.436 1.046 1.411.918 3.475 2.26 4.935 4.25 1.045 1.332-.01 2.616-.527 2.9-.72.392-1.423.665-2.262 0-.84-.667-2.181-1.624-3.636-1.368-1.456.256-2.03.352-2.88.352H1.8a1.8 1.8 0 0 1-1.8-1.8V12.02c0-1.957 1.23-4.44 3.197-5.122.638-.222 1.242-.634 1.5-1.258.681-1.649 1.942-3.41 4.388-4.149 2.983-.9 5.438.691 6.374 1.796a2.1 2.1 0 0 1-3.204 2.716Z"/><path fill="url(#e)" fill-rule="evenodd" d="M8.797 4.524c.749-.46 1.716-.382 2.348-.065A2.1 2.1 0 1 0 13.024.702C11.404-.108 8.854-.44 6.6.944 3.513 2.838 3.243 5.838 3.243 7.803a2.1 2.1 0 1 0 4.2 0c0-1.637.24-2.596 1.354-3.28Z" clip-rule="evenodd"/><path fill="url(#f)" fill-rule="evenodd" d="M8.797 4.524c.749-.46 1.716-.382 2.348-.065A2.1 2.1 0 1 0 13.024.702C11.404-.108 8.854-.44 6.6.944 3.513 2.838 3.243 5.838 3.243 7.803a2.1 2.1 0 1 0 4.2 0c0-1.637.24-2.596 1.354-3.28Z" clip-rule="evenodd"/><path fill="#E2B498" fill-rule="evenodd" d="M19.401 4.524c-.75-.46-1.716-.382-2.349-.065A2.1 2.1 0 1 1 15.174.702c1.62-.81 4.169-1.142 6.424.242 3.087 1.894 3.357 4.894 3.357 6.859a2.1 2.1 0 1 1-4.2 0c0-1.637-.24-2.596-1.354-3.28Z" clip-rule="evenodd"/><path fill="url(#g)" fill-rule="evenodd" d="M19.401 4.524c-.75-.46-1.716-.382-2.349-.065A2.1 2.1 0 1 1 15.174.702c1.62-.81 4.169-1.142 6.424.242 3.087 1.894 3.357 4.894 3.357 6.859a2.1 2.1 0 1 1-4.2 0c0-1.637-.24-2.596-1.354-3.28Z" clip-rule="evenodd"/><path fill="url(#h)" fill-rule="evenodd" d="M19.401 4.524c-.75-.46-1.716-.382-2.349-.065A2.1 2.1 0 1 1 15.174.702c1.62-.81 4.169-1.142 6.424.242 3.087 1.894 3.357 4.894 3.357 6.859a2.1 2.1 0 1 1-4.2 0c0-1.637-.24-2.596-1.354-3.28Z" clip-rule="evenodd"/><path fill="#F4BEAE" d="m15.64 6.004.014-.016a1.71 1.71 0 0 1 .202-.166c.134-.093.3-.186.49-.258.37-.14.79-.19 1.249-.051.975.294 1.535 1.073 1.895 2.207.16.897.145 2.622-.676 3.434-.241.268-.765.61-1.436 1.046-1.411.918-3.475 2.26-4.935 4.25-1.045 1.332-.095 2.741.423 3.024.719.393 1.527.54 2.366-.125.84-.666 2.181-1.623 3.637-1.367 1.455.256 2.03.352 2.88.352h4.345a1.8 1.8 0 0 0 1.8-1.8V12.02c0-1.957-1.23-4.44-3.197-5.122-.637-.222-1.242-.634-1.5-1.258-.681-1.649-1.942-3.41-4.388-4.149-2.983-.9-5.437.691-6.374 1.796a2.1 2.1 0 0 0 3.205 2.716Z"/><path stroke="url(#i)" stroke-linecap="round" stroke-width="2" d="M17.291 2.443c1.375-.042 4.275.844 5.25 4.719"/><path stroke="url(#j)" stroke-linecap="round" stroke-width="2" d="M24.041 8.13c.802.376 2.406 1.638 2.406 3.688v4.22"/><path stroke="url(#k)" stroke-linecap="round" stroke-width="2" d="M13.729 17.787c.52-.854 2.493-2.669 4.093-3.844"/><path stroke="url(#l)" stroke-linecap="round" stroke-width="2" d="M6.71 9.037c-.105.802.093 2.606 1.718 3.406 1.676 1.063 3.115 2.125 3.656 2.688"/><defs><radialGradient id="a" cx="0" cy="0" r="1" gradientTransform="matrix(-9.5 5.0001 -4.29369 -8.15785 10.353 9.946)" gradientUnits="userSpaceOnUse"><stop offset=".188" stop-color="#FBC4B3"/><stop offset="1" stop-color="#D89E89"/></radialGradient><radialGradient id="b" cx="0" cy="0" r="1" gradientTransform="rotate(-161.777 8.015 8.874) scale(7.76442 5.36053)" gradientUnits="userSpaceOnUse"><stop offset=".064" stop-color="#CC8E92"/><stop offset="1" stop-color="#CC8E92" stop-opacity="0"/></radialGradient><radialGradient id="c" cx="0" cy="0" r="1" gradientTransform="rotate(-128.919 10.955 4.116) scale(6.46664 2.55443)" gradientUnits="userSpaceOnUse"><stop stop-color="#CE967D"/><stop offset="1" stop-color="#CE967D" stop-opacity="0"/></radialGradient><radialGradient id="d" cx="0" cy="0" r="1" gradientTransform="matrix(-3.40628 3.7698 -2.87778 -2.60028 12.728 5.804)" gradientUnits="userSpaceOnUse"><stop offset=".365" stop-color="#C5837E"/><stop offset="1" stop-color="#D0908A" stop-opacity="0"/></radialGradient><radialGradient id="e" cx="0" cy="0" r="1" gradientTransform="matrix(-8.34381 6.31243 -6.97483 -9.21937 13.229 1.411)" gradientUnits="userSpaceOnUse"><stop stop-color="#FCD0B3"/><stop offset="1" stop-color="#EAB195"/></radialGradient><radialGradient id="f" cx="0" cy="0" r="1" gradientTransform="matrix(-2.78128 3.62228 -2.66505 -2.0463 8.041 5.383)" gradientUnits="userSpaceOnUse"><stop offset=".532" stop-color="#DBA486"/><stop offset="1" stop-color="#DBA486" stop-opacity="0"/></radialGradient><radialGradient id="g" cx="0" cy="0" r="1" gradientTransform="matrix(-10.37497 -9.90623 3.07089 -3.2162 25.197 6.661)" gradientUnits="userSpaceOnUse"><stop offset=".381" stop-color="#FFE3C2"/><stop offset="1" stop-color="#FFE3C2" stop-opacity="0"/></radialGradient><radialGradient id="h" cx="0" cy="0" r="1" gradientTransform="matrix(3.3125 2.82814 -1.66164 1.94621 20.947 4.288)" gradientUnits="userSpaceOnUse"><stop offset=".467" stop-color="#FFC4A1"/><stop offset="1" stop-color="#FFC4A1" stop-opacity="0"/></radialGradient><radialGradient id="j" cx="0" cy="0" r="1" gradientTransform="matrix(-6.37496 4.62505 -3.3986 -4.68448 29.104 9.443)" gradientUnits="userSpaceOnUse"><stop offset=".325" stop-color="#FFE4C7"/><stop offset="1" stop-color="#FFE4C7" stop-opacity="0"/></radialGradient><linearGradient id="i" x1="22.541" x2="13.635" y1="7.162" y2="1.224" gradientUnits="userSpaceOnUse"><stop stop-color="#FFE4C9"/><stop offset="1" stop-color="#FFE4C9" stop-opacity="0"/></linearGradient><linearGradient id="k" x1="14.166" x2="17.758" y1="18.1" y2="12.986" gradientUnits="userSpaceOnUse"><stop stop-color="#EFBCB1"/><stop offset="1" stop-color="#EFBCB1" stop-opacity="0"/></linearGradient><linearGradient id="l" x1="10.072" x2="7.866" y1="10.758" y2="14.505" gradientUnits="userSpaceOnUse"><stop stop-color="#FFD3BC"/><stop offset="1" stop-color="#FFD3BC" stop-opacity="0"/></linearGradient></defs></svg>