<svg xmlns="http://www.w3.org/2000/svg" width="40" height="40" fill="none"><g clip-path="url(#a)"><path fill="#FD8087" fill-rule="evenodd" d="M20.531 37.144c.481.394.72.608.962.617.24-.01.481-.224.962-.617l12.682-12.986c3.751-4.014 3.751-10.583 0-14.598-3.408-3.647-9.004-2.837-12.555.656l-.668.656c-.386.38-.46.38-.856-.009l-.655-.647c-3.544-3.495-9.148-4.303-12.556-.656-3.751 4.015-3.751 10.584 0 14.598l1.521 1.558 11.163 11.428Z" clip-rule="evenodd"/><path fill="#FE636E" fill-rule="evenodd" d="M24.145 8.937c1.824 2.648 2.883 5.793 2.883 9.166 0 .369-.014.732-.04 1.092-.202 2.995-1.242 5.781-2.903 8.16a17.487 17.487 0 0 1-2.54 2.892 18.268 18.268 0 0 1-3.398 2.452c-.423.237-.858.46-1.304.668l3.689 3.776c.48.393.72.608.962.617.239-.01.48-.224.962-.617l3.88-3.974 8.802-9.013c2.964-3.17 3.585-7.938 1.866-11.78a10.301 10.301 0 0 0-1.866-2.817 7.575 7.575 0 0 0-1.69-1.359c-1.965-1.153-4.305-1.285-6.514-.608-.97.297-1.915.753-2.79 1.345Z" clip-rule="evenodd"/><path fill="#F8F2F0" d="M25.233 22.752h-.01a.604.604 0 0 1-.52-.314l-3.12-5.689-2.322 4.062a.604.604 0 0 1-1.035.021l-1.443-2.294-1.09 1.81a.603.603 0 0 1-.516.292h-3.772a.604.604 0 0 1 0-1.208h3.43l1.42-2.357a.603.603 0 0 1 .51-.293h.006c.208 0 .4.107.511.282l1.43 2.274 2.359-4.124a.604.604 0 0 1 .524-.304h.005a.603.603 0 0 1 .524.314l3.13 5.707 1.58-2.652a.603.603 0 0 1 .518-.295h5.03a.604.604 0 0 1 0 1.208h-4.687l-1.944 3.265a.604.604 0 0 1-.518.295Z"/><path fill="#F8F2F0" fill-rule="evenodd" d="M33.448 13.425c3.609 0 6.552-2.945 6.552-6.557 0-3.61-2.943-6.556-6.552-6.556-3.61 0-6.553 2.945-6.553 6.556 0 3.612 2.943 6.557 6.553 6.557Z" clip-rule="evenodd"/><path fill="#D6DCEA" fill-rule="evenodd" d="M31.099.745a6.556 6.556 0 0 1 3.91 6c0 .042 0 .084-.003.123a6.493 6.493 0 0 1-.41 2.166 6.57 6.57 0 0 1-3.792 3.834 6.49 6.49 0 0 0 2.644.557c1.31 0 2.532-.384 3.556-1.047A6.555 6.555 0 0 0 40 6.868 6.554 6.554 0 0 0 31.099.745Z" clip-rule="evenodd"/><path fill="#FD8087" d="M35.832 6.264h-1.78V4.483a.604.604 0 1 0-1.208 0v1.781h-1.78a.604.604 0 0 0 0 1.208h1.78v1.782a.604.604 0 1 0 1.208 0V7.472h1.78a.604.604 0 0 0 0-1.208Z"/><path fill="#FED1A3" fill-rule="evenodd" d="m5.59 27.176-1.344 4.36 1.344 4.622 6.19 1.685 5.02 1.367c2.93.912 4.223.391 6.918-.475l9.874-3.168c2.835-.91 2.412-4.81-1.737-3.477l-5.52 1.08-.903.178c-1.34.26-1.523.368-2.874.158l-4.412-.805-.8-.148c-1.81-.578-1.105-3 .473-2.76 1.068.135 2.5.329 3.724.455l.074.007c2.363.24 3.311-1.526 2.466-2.899-.32-.522-.902-.99-1.765-1.264l-3.325-.61c-2.156-.396-3.689.097-7.035.647l-1.884.311-4.485.737Z" clip-rule="evenodd"/><path fill="#99E6FC" fill-rule="evenodd" d="M0 26.396v10.626c0 .134.14.242.31.242h4.967c.172 0 .313-.108.313-.242V26.397c0-.134-.14-.243-.313-.243H.31c-.17 0-.311.109-.311.242Z" clip-rule="evenodd"/><path fill="#62DBFB" fill-rule="evenodd" d="M0 35.389v1.632c0 .134.14.242.31.242h4.967c.172 0 .313-.108.313-.242v-1.633c0 .132-.14.242-.313.242H.31c-.17 0-.311-.11-.311-.241Z" clip-rule="evenodd"/><path fill="#FFBC85" fill-rule="evenodd" d="M5.59 35.388v.77l6.19 1.685 5.021 1.365c2.93.912 4.223.392 6.918-.474l9.874-3.168c1.6-.512 2.161-1.976 1.604-2.918-.273.544-.81 1.032-1.604 1.285l-9.874 3.168c-2.695.864-3.988 1.386-6.918.475l-5.02-1.366-6.191-1.687v.865Zm12.23-7.23c-1.251-.188-1.953 1.292-1.29 2.202.264-.394.72-.654 1.29-.57 1.068.137 2.5.33 3.724.457l.073.007c2.253.228 3.22-1.364 2.576-2.701-.178.34-.475.633-.884.829-.437.21-1.006.308-1.692.24l-.073-.008c-1.224-.126-2.656-.32-3.724-.456Z" clip-rule="evenodd"/></g><defs><clipPath id="a"><path fill="#fff" d="M0 0h40v40H0z"/></clipPath></defs></svg>