<svg xmlns="http://www.w3.org/2000/svg" width="40" height="40" fill="none"><path fill="#FFD15C" d="M19.964 31.764c8.772 0 15.882-7.11 15.882-15.882C35.846 7.11 28.736 0 19.964 0 11.194 0 4.083 7.11 4.083 15.882c0 8.771 7.11 15.882 15.881 15.882Z"/><path fill="#40596B" d="m7.098 25.172-5.464 9.472 6.378-.338 2.897 5.693 5.055-8.764a15.866 15.866 0 0 1-8.866-6.063Zm25.764-.047a15.872 15.872 0 0 1-8.843 6.095l5.071 8.779 2.898-5.693 6.378.339-5.504-9.52Z"/><path fill="#F8B64C" d="M19.964 27.393c6.358 0 11.512-5.154 11.512-11.512 0-6.358-5.154-11.512-11.512-11.512-6.357 0-11.511 5.154-11.511 11.512 0 6.358 5.154 11.512 11.511 11.512Z"/><path fill="#fff" d="M27.854 14.638a.601.601 0 0 0-.33-1.023l-4.544-.662a.592.592 0 0 1-.449-.33L20.5 8.505a.6.6 0 0 0-1.079 0l-2.023 4.118a.625.625 0 0 1-.45.33l-4.543.662a.601.601 0 0 0-.33 1.023l3.283 3.205a.606.606 0 0 1 .173.528l-.771 4.52a.6.6 0 0 0 .874.63l4.063-2.134a.587.587 0 0 1 .559 0l4.063 2.133a.603.603 0 0 0 .874-.63l-.78-4.52a.592.592 0 0 1 .174-.527l3.267-3.205Z"/></svg>