<svg xmlns="http://www.w3.org/2000/svg" width="40" height="40" fill="none"><g clip-path="url(#a)"><path fill="#F27A55" d="M20.256 22.371a.563.563 0 0 1-.503 0l-.003-.002A17.602 17.602 0 0 1 9.998 6.615V2.849a.56.56 0 0 1 .312-.504L14.88.06a.563.563 0 0 1 .252-.06h9.736c.087 0 .173.02.252.06l4.57 2.285c.19.095.311.29.311.504v3.77a17.603 17.603 0 0 1-9.745 15.752Z"/><path fill="#EA5E42" d="M12.413 6.615V2.849c0-.214.12-.409.311-.504L17.294.06a.563.563 0 0 1 .253-.06h-2.415a.564.564 0 0 0-.252.06l-4.57 2.285a.563.563 0 0 0-.312.504v3.766a17.602 17.602 0 0 0 9.752 15.754l.003.002a.564.564 0 0 0 .503 0c.325-.162.643-.333.955-.514a17.603 17.603 0 0 1-8.798-15.242Z"/><path fill="#F1F6F7" d="M25.062 7.473h-2.64a.564.564 0 0 1-.563-.563V4.27a.563.563 0 0 0-.563-.563h-2.593a.564.564 0 0 0-.563.564V6.91a.563.563 0 0 1-.564.563h-2.639a.564.564 0 0 0-.563.564v2.592c0 .312.252.564.563.564h2.64c.31 0 .563.252.563.564v2.639c0 .31.252.563.563.563h2.593a.564.564 0 0 0 .564-.563v-2.64c0-.31.252-.563.563-.563h2.639a.564.564 0 0 0 .564-.563V8.037a.564.564 0 0 0-.564-.564Z"/><path fill="#FFCEBF" d="M36.717 27.445 26.54 35.4a4.001 4.001 0 0 1-2.466.85h-14.07l-.805-2.085v-4.812l.805-1.174a9.93 9.93 0 0 1 2.408-1.202c1.088-.376 2.462-.663 4.123-.663a7.5 7.5 0 0 1 2.703.505l1.919.741h3.796c.888 0 1.607.72 1.607 1.607 0 0-.017.236-.051.397v.002a.62.62 0 0 1-.019.072h.001l3.051-1.761 5.567-3.215a1.606 1.606 0 0 1 1.923.24l.028.028c.093.094.175.201.244.321.424.73.144 1.773-.587 2.195Z"/><path fill="#FFB09E" d="M17.555 26.384a7.5 7.5 0 0 0-1.02-.07c-3.323 0-5.495 1.146-6.531 1.866l-.805 1.173v4.812l.805 2.085h2.415v-7.13c0-.62.34-1.188.884-1.48.971-.52 2.387-1.066 4.252-1.256Zm19.505-1.455-10.28 6.113a2.21 2.21 0 0 1-1.176.335h-7.29a.604.604 0 0 1 0-1.207h7.29c.38 0 .716-.208.887-.533l3.051-1.761 5.567-3.215a1.606 1.606 0 0 1 1.923.24l.028.028Z"/><path fill="#F1F6F7" d="M6.687 38.75H9.44a.564.564 0 0 0 .564-.563V26.812a.564.564 0 0 0-.564-.564H6.687V38.75Z"/><path fill="#D2E4E7" d="M6.687 26.248h2.012V38.75H6.687V26.248Z"/><path fill="#7398D4" d="M3.06 24.998h3.874c.311 0 .564.252.564.564v13.875a.564.564 0 0 1-.564.564H3.06a.563.563 0 0 1-.563-.564V25.562c0-.312.252-.564.563-.564Z"/><path fill="#4377C4" d="M2.497 25.561v13.876c0 .311.252.564.563.564h1.047V24.998H3.06a.563.563 0 0 0-.563.563Z"/><path fill="#F1F6F7" d="M5.028 29.352a.604.604 0 1 1 0-1.207.604.604 0 0 1 0 1.207Z"/></g><defs><clipPath id="a"><path fill="#fff" d="M0 0h40v40H0z"/></clipPath></defs></svg>