<svg xmlns="http://www.w3.org/2000/svg" width="100" height="22" fill="none"><g fill="#003588" clip-path="url(#a)"><path d="M34.383 21.08c-2.307 0-4.106-.637-5.398-1.914-1.276-1.276-1.915-3.098-1.915-5.467V4.657h3.737v8.904c0 2.891 1.2 4.337 3.599 4.337 1.169 0 2.06-.346 2.676-1.038.615-.708.922-1.807.922-3.3V4.658h3.691V13.7c0 2.369-.646 4.191-1.937 5.467-1.277 1.277-3.068 1.915-5.375 1.915Zm9.133-8.21h6.528v2.883h-6.528v-2.884Zm10.972-5.168H49.32V4.657h14.072v3.045h-5.167v13.102h-3.737V7.702Zm21.744.692v12.41h-3.414v-1.476a4.902 4.902 0 0 1-1.707 1.246 5.503 5.503 0 0 1-2.145.415c-1.63 0-2.922-.47-3.876-1.407-.953-.938-1.43-2.33-1.43-4.175V8.394h3.599v6.482c0 2 .838 2.999 2.514 2.999.861 0 1.553-.277 2.076-.83.523-.57.784-1.408.784-2.515V8.394h3.599Zm5.615 1.638a4.012 4.012 0 0 1 1.73-1.361c.738-.308 1.584-.462 2.538-.462v3.322c-.4-.03-.67-.046-.808-.046-1.03 0-1.837.292-2.422.877-.584.569-.876 1.43-.876 2.583v5.86H78.41V8.394h3.437v1.638ZM94.645 8.21c1.538 0 2.776.46 3.714 1.384.953.922 1.43 2.29 1.43 4.106v7.105H96.19v-6.552c0-.984-.215-1.714-.645-2.191-.431-.492-1.054-.738-1.87-.738-.906 0-1.629.284-2.167.853-.539.554-.808 1.384-.808 2.491v6.137h-3.598V8.394h3.437v1.453a4.66 4.66 0 0 1 1.776-1.2 6.044 6.044 0 0 1 2.33-.438Z"/><path fill-rule="evenodd" d="M10.992.46a1.571 1.571 0 0 1 2.223 0l5.747 5.747-5.773 5.51a1.571 1.571 0 1 1-2.17-2.273l1.772-1.692h-3.83a5.552 5.552 0 0 0 0 11.105h7.752a1.572 1.572 0 1 1 0 3.143H8.961a8.695 8.695 0 1 1 0-17.39h3.958l-1.927-1.927a1.572 1.572 0 0 1 0-2.223Z" clip-rule="evenodd"/></g><defs><clipPath id="a"><path fill="#fff" d="M0 0h100v22H0z"/></clipPath></defs></svg>