<svg xmlns="http://www.w3.org/2000/svg" width="92" height="22" fill="none"><g clip-path="url(#a)"><mask id="b" width="92" height="22" x="0" y="0" maskUnits="userSpaceOnUse" style="mask-type:luminance"><path fill="#fff" d="M91.389 0H.21v22h91.178V0Z"/></mask><g fill="#003588" mask="url(#b)"><path d="M46.56 3.423a26.91 26.91 0 0 0-4.604 3.408 119.781 119.781 0 0 0-4.214 3.952 76.729 76.729 0 0 0-2.302 2.322l-2.254 2.37c-.392.462-.816.923-1.274 1.384-.424.428-.849.889-1.273 1.383a20.2 20.2 0 0 0 2.008-.593c.686-.23 1.307-.428 1.862-.593a18.16 18.16 0 0 0 1.568-.395c.555-.164 1.11-.296 1.665-.395a7.194 7.194 0 0 1 1.666-.197 3.716 3.716 0 0 1 1.617.246c.62.231.996.626 1.127 1.186.097.362.065.708-.099 1.037a23.26 23.26 0 0 0 1.617-.543 94.503 94.503 0 0 1 1.568-.543l2.842-.89c.947-.329 1.91-.592 2.89-.79.261-.066.572-.099.93-.099.393-.033.736 0 1.03.1.294.098.506.279.637.542.163.231.18.577.048 1.038a1.427 1.427 0 0 1-.587.74 4.2 4.2 0 0 1-1.03.396c-.391.099-.783.181-1.175.247a5.036 5.036 0 0 0-.93.148 95.43 95.43 0 0 0-3.283 1.038l-3.234.987c-.555.165-1.16.33-1.812.494-.654.198-1.274.23-1.862.1a1.913 1.913 0 0 1-.735-.297c-.555-.428-.816-.823-.784-1.186.033-.362.18-.724.441-1.087h-.588a44.805 44.805 0 0 0-3.527.741c-.947.264-1.91.56-2.89.89-.948.329-1.928.543-2.94.642a2.094 2.094 0 0 1-1.078-.198c-.36-.131-.62-.411-.784-.84a1.423 1.423 0 0 1 0-1.037 4.44 4.44 0 0 1 .54-1.037 31.217 31.217 0 0 1-2.695 1.432c-.817.363-1.437.626-1.862.79-.85.363-1.764.742-2.744 1.137-.98.395-1.96.576-2.939.543-1.078-.066-1.731-.362-1.96-.889-.228-.527-.18-1.185.147-1.976.294-.823.768-1.696 1.421-2.618a34.91 34.91 0 0 1 2.058-2.717 50.16 50.16 0 0 1 2.057-2.223 89.885 89.885 0 0 1 1.225-1.284l.686-.692h-2.793c-.914 0-1.845.017-2.792.05a157.26 157.26 0 0 0-5.634.296c-1.894.099-3.789.247-5.683.445-.686.098-1.355.197-2.009.296a14.91 14.91 0 0 0-2.057.346 4.508 4.508 0 0 0-.54.148.759.759 0 0 1-.538 0c-.36-.132-.523-.362-.49-.692 0-.362.163-.592.49-.691a63.98 63.98 0 0 1 12.1-1.927 223.52 223.52 0 0 1 12.298-.543c.849-.79 1.698-1.564 2.547-2.322a184.84 184.84 0 0 1 2.597-2.272c.424-.395.914-.89 1.47-1.482C32.303.623 32.891.23 33.48.064c.327-.1.604-.083.833.049.261.099.457.28.588.543.13.23.18.494.147.79a1.31 1.31 0 0 1-.392.791 243.744 243.744 0 0 0-2.988 2.569c-.98.823-1.944 1.68-2.891 2.568.49 0 .947.066 1.372.198.392.099.735.263 1.028.494.327.23.556.576.686 1.037.098.396.05.741-.147 1.038a1.844 1.844 0 0 1-.734.592 1.774 1.774 0 0 1-.931.05c-.294-.099-.523-.313-.686-.642a6.032 6.032 0 0 0-1.47-.346 8.968 8.968 0 0 0-1.568-.148l-.49.444a425.737 425.737 0 0 0-4.262 4.15c-1.47 1.482-2.629 3.079-3.478 4.791 1.143-.23 2.319-.56 3.527-.988 1.209-.428 2.4-.905 3.577-1.432a67.58 67.58 0 0 0 3.478-1.68 40.917 40.917 0 0 0 3.184-1.926 135.548 135.548 0 0 1 3.773-3.754 100.557 100.557 0 0 1 3.968-3.607 77.51 77.51 0 0 1 2.499-2.124 35.313 35.313 0 0 1 2.596-1.926 2.65 2.65 0 0 1 1.176-.494c.457-.099.833.082 1.127.543.163.297.196.626.098.988a1.21 1.21 0 0 1-.54.79Z"/><path d="M75.214 18.291c-.752.066-1.503.198-2.254.395-.719.165-1.453.33-2.205.494-1.96.462-3.903.906-5.83 1.334a57.512 57.512 0 0 1-5.878.89 24.77 24.77 0 0 1-1.666.148 10.13 10.13 0 0 1-1.715-.05 6.824 6.824 0 0 1-1.617-.395 4.04 4.04 0 0 1-1.42-.79 3.15 3.15 0 0 1-.833-1.038 2.88 2.88 0 0 1-.392-1.235 2.623 2.623 0 0 1 .098-1.235c.13-.428.375-.806.734-1.136.23-.23.588-.411 1.079-.543a8.787 8.787 0 0 1 1.714-.346 11.82 11.82 0 0 1 1.862-.05c.62.034 1.16.149 1.617.347.457.197.767.477.93.84.196.329.18.757-.049 1.284-.196.395-.49.675-.882.84a5.19 5.19 0 0 1-1.322.345c-.49.033-.997.033-1.519 0-.522-.066-.98-.132-1.372-.197.13.131.392.246.784.345.392.066.8.116 1.225.148.457.034.865.05 1.225.05h.735c1.6-.132 3.184-.362 4.752-.692 1.6-.329 3.184-.675 4.752-1.037a537.92 537.92 0 0 0 3.38-.79 25.11 25.11 0 0 1 3.43-.642c.49-.034.898.082 1.225.345.326.264.538.577.636.939.098.33.05.642-.147.938-.163.297-.522.461-1.077.494Z"/><path d="M90.001 18.291c-1.665.033-3.364.083-5.095.148a18.922 18.922 0 0 1-5.095-.592.864.864 0 0 1-.392-.1 6.12 6.12 0 0 1-.882 1.631 6.504 6.504 0 0 1-1.224 1.284 4.474 4.474 0 0 1-1.52.79 2.824 2.824 0 0 1-1.567.05c-.49-.132-.85-.379-1.078-.74a2.354 2.354 0 0 1-.44-1.236 3.391 3.391 0 0 1 .195-1.383c.131-.461.327-.873.588-1.235a3.92 3.92 0 0 1 1.617-1.186 2.874 2.874 0 0 1 1.96-.098c.065-.461.326-.824.783-1.087.458-.264.948-.23 1.47.099a6.69 6.69 0 0 0 1.568.691c.588.132 1.192.214 1.813.247.62.033 1.224.05 1.812.05a33.31 33.31 0 0 1 1.764-.05c.653 0 1.355-.033 2.106-.098.752-.1 1.438-.05 2.058.148.36.131.605.345.735.642.163.296.212.593.147.89a1.3 1.3 0 0 1-.392.79c-.228.23-.539.345-.93.345Zm-14.648.642c.098-.098.294-.148.588-.148v-.444a2.863 2.863 0 0 1-.294.247.623.623 0 0 0-.294.345Z"/></g></g><defs><clipPath id="a"><path fill="#fff" d="M0 0h92v22H0z"/></clipPath></defs></svg>