<svg xmlns="http://www.w3.org/2000/svg" width="96" height="20" fill="none"><g fill="#003588" clip-path="url(#a)"><path d="M7.251 19.549c-1.951-.065-3.426-.506-4.424-1.323-.998-.839-1.718-1.774-2.162-2.806A8.169 8.169 0 0 1 0 12.226C0 11.108.21 10.032.632 9c.443-1.054 1.164-1.99 2.162-2.806 1.02-.84 2.306-1.27 3.858-1.29H17.43c1.552.02 2.827.45 3.825 1.29 1.02.817 1.74 1.752 2.162 2.806a8.093 8.093 0 0 1 .665 3.226c0 1.075-.222 2.14-.665 3.193-.444 1.033-1.164 1.968-2.162 2.807-.998.817-2.473 1.258-4.424 1.323h-9.58ZM6.519 9.226c-.421 0-.787.172-1.097.516-.31.323-.544.71-.699 1.161-.133.43-.2.86-.2 1.29 0 .452.067.904.2 1.356.155.43.388.817.699 1.16.31.323.676.495 1.097.517h11.043a1.594 1.594 0 0 0 1.098-.516c.31-.344.532-.731.665-1.162.155-.451.233-.903.233-1.354 0-.43-.078-.86-.233-1.29a2.778 2.778 0 0 0-.665-1.162c-.31-.344-.677-.516-1.098-.516H6.519Zm42.509-2.452c0 .538-.222.99-.665 1.355-.421.344-.943.516-1.563.516H32.73c-.288 0-.521.054-.698.162a1.28 1.28 0 0 0-.4.354c-.088.108-.133.205-.133.29a.64.64 0 0 0 .134.355c.088.108.221.216.399.323.177.086.41.14.698.161h10.877c1.396.022 2.55.29 3.459.807.909.495 1.552 1.086 1.929 1.774.399.667.598 1.344.598 2.032 0 .667-.2 1.344-.598 2.033-.4.666-1.053 1.258-1.963 1.774-.887.494-2.029.742-3.425.742a6.811 6.811 0 0 1-.533.032H30.17c-.62 0-1.153-.172-1.597-.516-.42-.366-.631-.807-.631-1.323 0-.537.221-.989.665-1.355.421-.344.942-.516 1.563-.516h13.704c.332.022.598-.021.798-.129.221-.107.388-.226.499-.355a.597.597 0 0 0 .166-.387c0-.064-.055-.172-.166-.322a1.002 1.002 0 0 0-.5-.387c-.199-.108-.465-.172-.797-.194h-10.91c-1.286-.021-2.35-.28-3.193-.774-.843-.516-1.442-1.108-1.796-1.774-.355-.667-.533-1.334-.533-2 0-.667.178-1.323.533-1.968.377-.667.975-1.237 1.796-1.71.843-.494 1.907-.763 3.193-.806a5.66 5.66 0 0 1 .499-.032H46.8c.62 0 1.142.182 1.563.548.443.344.665.774.665 1.29ZM55.58 0a2.24 2.24 0 0 1 1.53.645 2 2 0 0 1 .666 1.452v15.806c-.134 1.29-.865 1.99-2.196 2.097a2.48 2.48 0 0 1-1.63-.58 1.979 1.979 0 0 1-.665-1.517V2.097a1.985 1.985 0 0 1 .699-1.484A2.274 2.274 0 0 1 55.58 0Zm13.304 19.549c-1.952-.065-3.426-.506-4.424-1.323-.998-.839-1.718-1.774-2.162-2.806a8.169 8.169 0 0 1-.665-3.194c0-1.118.21-2.194.632-3.226.443-1.054 1.164-1.99 2.162-2.806 1.02-.84 2.306-1.27 3.858-1.29h10.777c1.552.02 2.827.45 3.825 1.29 1.02.817 1.74 1.752 2.162 2.806a8.093 8.093 0 0 1 .665 3.226c0 1.075-.222 2.14-.665 3.193-.444 1.033-1.164 1.968-2.162 2.807-.998.817-2.473 1.258-4.424 1.323h-9.58Zm-.732-10.323c-.421 0-.787.172-1.098.516-.31.323-.543.71-.698 1.161-.133.43-.2.86-.2 1.29 0 .452.067.904.2 1.356.155.43.388.817.698 1.16.31.323.677.495 1.098.517h11.043a1.594 1.594 0 0 0 1.097-.516c.31-.344.533-.731.666-1.162.155-.451.232-.903.232-1.354 0-.43-.077-.86-.232-1.29a2.78 2.78 0 0 0-.666-1.162c-.31-.344-.676-.516-1.097-.516H68.152ZM92.858 20a2.381 2.381 0 1 0 0-4.762 2.381 2.381 0 0 0 0 4.762Z"/></g><defs><clipPath id="a"><path fill="#fff" d="M0 0h96v20H0z"/></clipPath></defs></svg>