<svg xmlns="http://www.w3.org/2000/svg" width="422" height="87" fill="none"><g fill="#003588" clip-path="url(#a)"><path d="M343.105 4v78h11.416V4h-11.416Z"/><path fill-rule="evenodd" d="M239.879 83.259c-4.505 0-8.268-1.05-11.29-3.148a18.527 18.527 0 0 1-.965-.716V82h-10.073V5.259h11.5v32.876c2.821-1.814 6.234-2.721 10.24-2.721 4.337 0 8.114 1.035 11.332 3.105 3.218 2.07 5.708 4.91 7.47 8.52 1.791 3.582 2.686 7.68 2.686 12.297 0 4.533-.881 8.604-2.644 12.214-1.734 3.609-4.169 6.463-7.302 8.56-3.134 2.1-6.785 3.149-10.954 3.149Zm-11.248-31.141c-.672 2.07-1.007 4.476-1.007 7.218s.335 5.149 1.007 7.219c.671 2.07 1.763 3.679 3.273 4.827 1.539 1.147 3.582 1.72 6.128 1.72 2.462 0 4.477-.615 6.044-1.846 1.567-1.231 2.728-2.882 3.483-4.953.756-2.098 1.133-4.42 1.133-6.967 0-2.518-.391-4.812-1.175-6.882-.783-2.1-2-3.764-3.651-4.995-1.623-1.26-3.708-1.889-6.254-1.889-2.378 0-4.309.574-5.791 1.721-1.455 1.147-2.519 2.756-3.19 4.827Z" clip-rule="evenodd"/><path d="M199.503 55.223V82h11.415V52.202c0-4.953-1.329-8.954-3.987-12.003-2.63-3.078-6.533-4.617-11.709-4.617-3.022 0-5.778.672-8.268 2.014a15.384 15.384 0 0 0-5.58 5.02c-1.074-1.931-2.558-3.521-4.451-4.768-2.266-1.51-5.176-2.266-8.729-2.266-3.106 0-5.918.685-8.436 2.056-1.903 1.048-3.512 2.382-4.827 4.001v-4.966h-10.072V82h11.499V54.552c0-2.602.714-4.714 2.141-6.337 1.455-1.651 3.371-2.476 5.749-2.476 2.491 0 4.435.839 5.834 2.518 1.427 1.65 2.141 3.973 2.141 6.966V82h11.415V54.552c0-1.735.322-3.26.966-4.575.671-1.342 1.594-2.378 2.77-3.105 1.175-.756 2.56-1.133 4.155-1.133 2.49 0 4.434.839 5.833 2.518 1.427 1.65 2.141 3.973 2.141 6.966Zm-95.542 26.315c2.238 1.203 5.133 1.805 8.687 1.805 4.448 0 8.129-.965 11.039-2.896a18.591 18.591 0 0 0 3.651-3.121V82h10.073V36.673h-11.5v22.999c0 2.798-.322 5.064-.965 6.799-.616 1.707-1.413 3.008-2.393 3.903-.979.868-2.028 1.455-3.147 1.763-1.119.308-2.169.462-3.148.462-2.434 0-4.323-.546-5.666-1.637a9.317 9.317 0 0 1-2.854-4.071c-.587-1.623-.937-3.232-1.049-4.827-.112-1.622-.168-2.951-.168-3.987V36.673H94.937v25.433c0 .756.056 1.959.168 3.61.111 1.65.433 3.483.965 5.498.532 1.986 1.414 3.903 2.645 5.75 1.258 1.846 3.008 3.37 5.246 4.574Zm161.855-44.865V82h11.499V58.833c0-1.735.238-3.288.714-4.66.476-1.398 1.175-2.601 2.098-3.608.924-1.036 2.057-1.861 3.4-2.477 1.343-.643 2.84-1.021 4.491-1.133 1.678-.14 3.147-.014 4.406.378v-10.66a20.211 20.211 0 0 0-4.113-.084c-1.371.084-2.7.321-3.987.713a14.066 14.066 0 0 0-3.567 1.553 12.351 12.351 0 0 0-3.609 3.19c-.464.609-.884 1.25-1.26 1.922v-7.294h-10.072Z"/><path fill-rule="evenodd" d="M316.462 83.26c-4.645 0-8.744-.994-12.297-2.98-3.526-2.015-6.296-4.77-8.31-8.269-1.987-3.525-2.98-7.554-2.98-12.087 0-4.952.979-9.26 2.938-12.926 1.958-3.666 4.658-6.506 8.1-8.52 3.441-2.043 7.401-3.064 11.877-3.064 4.757 0 8.8 1.12 12.129 3.358 3.33 2.238 5.792 5.386 7.387 9.443 1.595 4.057 2.155 8.827 1.679 14.311h-31.827c.356 2.721 1.201 4.931 2.532 6.631 1.847 2.295 4.547 3.442 8.1 3.442 2.239 0 4.155-.49 5.75-1.469 1.595-.979 2.812-2.392 3.651-4.239l11.416 3.274c-1.707 4.141-4.407 7.358-8.1 9.652-3.665 2.295-7.68 3.442-12.045 3.442Zm7.009-34.877c.975 1.325 1.63 3.214 1.964 5.665h-19.977c.445-2.093 1.189-3.814 2.232-5.162 1.847-2.378 4.715-3.567 8.604-3.567 3.33 0 5.722 1.021 7.177 3.064Z" clip-rule="evenodd"/><path d="M363.742 82V4h11.416v78h-11.416Z"/><path fill-rule="evenodd" d="M387.868 81.412c2.267 1.231 5.023 1.847 8.268 1.847 3.917 0 7.149-.672 9.695-2.015 2.03-1.08 3.946-2.683 5.75-4.808V82h9.989V54.3c0-2.07-.084-3.945-.252-5.623-.168-1.68-.7-3.358-1.595-5.037-1.595-3.022-3.945-5.148-7.051-6.38-3.106-1.23-6.659-1.846-10.66-1.846-5.456 0-9.765 1.175-12.927 3.526-3.161 2.35-5.316 5.4-6.463 9.149l10.325 3.273c.727-2.07 2-3.51 3.819-4.322 1.818-.812 3.567-1.218 5.246-1.218 3.022 0 5.176.63 6.463 1.89 1.011.988 1.625 2.416 1.842 4.285l-5.493.834c-2.938.42-5.568.868-7.89 1.343-2.323.476-4.323 1.022-6.002 1.637-2.434.895-4.379 2.015-5.834 3.358-1.427 1.315-2.462 2.84-3.106 4.574-.643 1.735-.965 3.652-.965 5.75 0 2.518.574 4.826 1.721 6.925 1.175 2.07 2.882 3.735 5.12 4.994Zm15.991-8.226c-1.427.728-3.19 1.092-5.289 1.092-1.315 0-2.448-.196-3.399-.588-.951-.392-1.693-.95-2.224-1.679-.504-.755-.756-1.65-.756-2.686 0-.755.154-1.44.462-2.056.335-.616.839-1.175 1.511-1.679.699-.532 1.608-1.02 2.728-1.469.979-.364 2.112-.7 3.399-1.007 1.287-.308 2.98-.644 5.078-1.008 1.349-.25 2.963-.538 4.843-.859-.026.798-.074 1.7-.142 2.706-.084 1.623-.42 3.05-1.007 4.281-.308.643-.896 1.441-1.763 2.392-.839.951-1.986 1.805-3.441 2.56ZM31.938 37h-31v13.5c0 20.158 16.341 36.5 36.5 36.5 20.158 0 36.5-16.342 36.5-36.5V37h-32V15.5c0-8.56-6.94-15.5-15.5-15.5-8.56 0-15.5 6.94-15.5 15.5h10a5.5 5.5 0 0 1 11 0V37Zm0 10v19h10V47h22v3.5c0 14.636-11.865 26.5-26.5 26.5-14.636 0-26.5-11.864-26.5-26.5V47h21Z" clip-rule="evenodd"/></g><defs><clipPath id="a"><path fill="#fff" d="M0 0h422v87H0z"/></clipPath></defs></svg>