<svg xmlns="http://www.w3.org/2000/svg" width="71" height="22" fill="none"><g fill="#003588" clip-path="url(#a)"><path d="m38.196 17.313-4.784-5.984 4.48-5.292h-2.959l-3.99 5.038V6.037h-2.4v11.276h2.4v-3.466l.88-1.048 3.415 4.514h2.958Z"/><path d="M43.84 17.516c3.415 0 5.9-2.435 5.9-5.833s-2.485-5.832-5.9-5.832c-3.398 0-5.883 2.434-5.883 5.832 0 3.398 2.485 5.833 5.883 5.833Zm0-2.13c-2.08 0-3.415-1.606-3.415-3.703 0-2.113 1.336-3.702 3.415-3.702 2.08 0 3.432 1.59 3.432 3.702 0 2.097-1.352 3.703-3.432 3.703Zm13.705 1.927c2.147 0 3.28-1.352 3.28-3.043 0-1.42-.963-2.586-2.164-2.772 1.065-.22 1.944-1.167 1.944-2.587 0-1.505-1.098-2.874-3.246-2.874h-5.933v11.276h6.12Zm-.71-6.762h-3.009V8.1h3.01c.81 0 1.318.524 1.318 1.234s-.507 1.217-1.318 1.217Zm.085 4.683h-3.094v-2.62h3.094c.947 0 1.454.608 1.454 1.318 0 .811-.541 1.302-1.454 1.302Zm13.696 2.079V15.2h-5.579v-2.553h5.46v-2.113h-5.46V8.15h5.58V6.037h-7.98v11.276h7.98ZM21.758 5.764V3.046h-9.301V0H9.48v3.046H.391v2.718h9.114v2.46H2.593v10.941h2.811v-8.224h4.1V22h2.906V10.941h4.475v5.155c0 .258-.117.375-.492.375s-1.757 0-2.929-.047c.398.75.82 1.945.937 2.741 1.828 0 3.163-.047 4.147-.468.96-.422 1.242-1.219 1.242-2.554v-7.92h-7.38v-2.46h9.348Z"/></g><defs><clipPath id="a"><path fill="#fff" d="M0 0h71v22H0z"/></clipPath></defs></svg>