<svg xmlns="http://www.w3.org/2000/svg" width="72" height="22" fill="none"><g fill="#003588" clip-path="url(#a)"><path d="M29.807 17.92h-4.885V3.988h4.611c1.655 0 2.834.3 3.537.9.716.585 1.075 1.406 1.075 2.461v.43c0 .795-.157 1.44-.47 1.935-.312.481-.774.84-1.386 1.074.69.222 1.211.573 1.563 1.055.352.47.527 1.088.527 1.857v.527c0 1.16-.364 2.065-1.094 2.716-.716.652-1.876.977-3.478.977Zm-.234-12.056h-2.424V9.85h2.404c.808 0 1.4-.15 1.778-.45.378-.299.567-.787.567-1.465v-.351c0-.587-.19-1.016-.567-1.29-.365-.287-.95-.43-1.758-.43Zm-.098 5.882h-2.326v4.2h2.365c.925 0 1.576-.149 1.954-.449.39-.312.586-.794.586-1.445v-.43c0-.652-.208-1.127-.625-1.427-.417-.3-1.068-.45-1.954-.45Zm9.691 4.631c.3 0 .58-.033.84-.098.274-.078.521-.195.743-.352.443-.286.781-.67 1.016-1.153.247-.482.371-.99.371-1.524v-1.21c-.182.156-.436.293-.762.41a9.962 9.962 0 0 1-1.192.332c-.586.13-1.03.254-1.329.371-.3.118-.56.268-.781.45a1.74 1.74 0 0 0-.43.547 1.79 1.79 0 0 0-.137.723v.078c0 .443.137.795.41 1.055.287.248.704.372 1.251.372Zm3.302 1.543-.254-2.032a3.954 3.954 0 0 1-1.465 1.641c-.639.417-1.44.626-2.404.626-1.068 0-1.882-.254-2.442-.762-.56-.508-.84-1.218-.84-2.13v-.176c0-.573.11-1.068.332-1.485a2.97 2.97 0 0 1 .938-1.075c.13-.091.26-.17.39-.234.144-.079.28-.15.41-.215a6.775 6.775 0 0 1 1.017-.313 43.43 43.43 0 0 1 1.504-.352c.925-.195 1.564-.39 1.915-.586.365-.208.547-.534.547-.977v-.039c0-.495-.162-.88-.488-1.153-.313-.273-.84-.41-1.583-.41-.782 0-1.368.176-1.758.527-.378.352-.58.847-.606 1.486v.488h-2.306v-.508c.065-1.146.489-2.058 1.27-2.736.795-.69 1.902-1.035 3.322-1.035 1.55 0 2.658.325 3.322.977.677.638 1.016 1.524 1.016 2.657v7.816h-1.837Zm5.467 0h-2.228V6.685h1.817l.313 2.423c.17-.9.508-1.544 1.016-1.935.521-.39 1.264-.586 2.228-.586h.605v2.345h-.918a5.98 5.98 0 0 0-1.016.078c-.287.052-.534.13-.743.234-.404.209-.684.547-.84 1.017-.156.468-.234 1.094-.234 1.875v5.784Zm8.603.254c-1.577 0-2.775-.423-3.596-1.27-.808-.86-1.212-2.09-1.212-3.693v-1.7c0-.56.053-1.068.157-1.524.104-.469.254-.892.45-1.27a4.111 4.111 0 0 1 1.719-1.68c.73-.391 1.57-.587 2.52-.587 1.394 0 2.508.352 3.342 1.055.834.704 1.29 1.798 1.368 3.283v.371h-2.384v-.37c-.065-.835-.287-1.44-.665-1.818-.377-.378-.931-.567-1.66-.567-.782 0-1.4.26-1.857.782-.443.52-.664 1.303-.664 2.345v1.641c0 .951.215 1.687.645 2.208.443.521 1.061.782 1.856.782.73 0 1.283-.196 1.66-.587.392-.39.626-.996.704-1.817v-.45h2.384v.49c-.078 1.497-.547 2.605-1.407 3.321-.846.704-1.967 1.055-3.36 1.055Zm9.452-1.797c.3 0 .58-.033.84-.098.274-.078.521-.195.743-.352.443-.286.782-.67 1.016-1.153.247-.482.371-.99.371-1.524v-1.21c-.182.156-.436.293-.762.41a9.952 9.952 0 0 1-1.192.332c-.586.13-1.029.254-1.329.371-.3.118-.56.268-.781.45a1.74 1.74 0 0 0-.43.547 1.79 1.79 0 0 0-.137.723v.078c0 .443.137.795.41 1.055.287.248.704.372 1.251.372Zm3.302 1.543-.254-2.032a3.952 3.952 0 0 1-1.465 1.641c-.638.417-1.44.626-2.404.626-1.068 0-1.882-.254-2.442-.762-.56-.508-.84-1.218-.84-2.13v-.176c0-.573.11-1.068.332-1.485a2.97 2.97 0 0 1 .938-1.075c.13-.091.26-.17.39-.234.144-.079.28-.15.41-.215a6.772 6.772 0 0 1 1.017-.313 41.24 41.24 0 0 1 1.505-.352c.924-.195 1.563-.39 1.914-.586.365-.208.548-.534.548-.977v-.039c0-.495-.163-.88-.489-1.153-.313-.273-.84-.41-1.583-.41-.781 0-1.367.176-1.758.527-.378.352-.58.847-.606 1.486v.488h-2.306v-.508c.065-1.146.489-2.058 1.27-2.736.795-.69 1.902-1.035 3.322-1.035 1.55 0 2.658.325 3.322.977.677.638 1.016 1.524 1.016 2.657v7.816h-1.837Z"/><path fill-rule="evenodd" d="M2.475.51C2.802.184 3.245 0 3.708 0h9.94l6.123 6.124v13.122a1.743 1.743 0 0 1-1.743 1.743h-2.386v-1.895h2.235V6.91l-5.014-5.015H3.859v7.01H1.965V1.742c0-.462.183-.906.51-1.233Z" clip-rule="evenodd"/><path fill-rule="evenodd" d="M12.309.947h1.894V5.57h4.622v1.895h-6.516V.947ZM7.686 8.9l1.971 4.567 5.216.402-3.976 3.282 1.2 4.85-4.41-2.597L3.274 22l1.2-4.849L.5 13.87l5.216-.402L7.686 8.9Zm0 4.78-.684 1.588-1.676.129L6.6 16.45l-.405 1.633 1.49-.877 1.49.877-.404-1.633 1.275-1.053-1.676-.13-.685-1.586Z" clip-rule="evenodd"/></g><defs><clipPath id="a"><path fill="#fff" d="M0 0h72v22H0z"/></clipPath></defs></svg>