<svg xmlns="http://www.w3.org/2000/svg" width="140" height="24" fill="none"><path fill="#266AFB" d="M8.383 6.003c.462-1.263.693-1.895.895-2.205 1.281-1.97 4.167-1.97 5.448 0 .202.31.433.942.895 2.205l.047.13c.04.11.06.164.08.213a2 2 0 0 0 1.734 1.212c.053.003.111.003.228.003h.498c.334 0 .5 0 .583.004 3.027.153 4.215 4 1.802 5.833-.066.05-.204.144-.48.332a2 2 0 0 0-.82 2.323l.043.117c.24.658.36.986.402 1.152.675 2.701-2.136 4.946-4.62 3.689-.153-.077-.43-.256-.984-.614l-.843-.545a4.486 4.486 0 0 0-.39-.238 2 2 0 0 0-1.797 0 4.499 4.499 0 0 0-.391.238l-.826.534c-.568.367-.852.55-1.009.629-2.48 1.246-5.28-.99-4.614-3.684.042-.17.165-.506.41-1.178a2 2 0 0 0-.657-2.36l-.1-.07a16.506 16.506 0 0 1-.501-.359C1.061 11.51 2.257 7.728 5.25 7.565c.088-.004.264-.004.616-.004h.431c.114 0 .17 0 .222-.003a2 2 0 0 0 1.737-1.215c.02-.047.04-.1.08-.207l.047-.133Zm29 0c.462-1.263.693-1.895.895-2.205 1.281-1.97 4.167-1.97 5.449 0 .2.31.432.942.894 2.205l.047.13c.04.11.06.164.08.213a2 2 0 0 0 1.734 1.212c.053.003.111.003.228.003h.498c.334 0 .5 0 .583.004 3.027.153 4.215 4 1.802 5.833a17.238 17.238 0 0 1-.574.398 2 2 0 0 0-.725 2.258l.042.116c.24.658.36.986.402 1.152.675 2.701-2.136 4.946-4.62 3.689-.153-.077-.43-.256-.984-.614l-.843-.545a4.486 4.486 0 0 0-.39-.238 2 2 0 0 0-1.797 0 4.499 4.499 0 0 0-.391.238l-.826.534c-.568.367-.852.55-1.009.629-2.48 1.246-5.28-.99-4.614-3.684.042-.17.165-.506.41-1.178a2 2 0 0 0-.657-2.36l-.1-.07a16.408 16.408 0 0 1-.501-.359c-2.355-1.854-1.159-5.636 1.834-5.799.088-.004.264-.004.617-.004h.43c.114 0 .17 0 .222-.003a2 2 0 0 0 1.737-1.215c.02-.047.04-.1.08-.207l.047-.133Zm29 0c.462-1.263.693-1.895.895-2.205 1.281-1.97 4.167-1.97 5.448 0 .202.31.433.942.895 2.205l.047.13c.04.11.06.164.08.213a2 2 0 0 0 1.734 1.212c.053.003.111.003.228.003h.498c.334 0 .5 0 .583.004 3.027.153 4.215 4 1.802 5.833-.066.05-.204.144-.48.332a2 2 0 0 0-.82 2.323l.043.117c.24.658.36.986.402 1.152.675 2.701-2.136 4.946-4.62 3.689-.153-.077-.43-.256-.984-.614l-.843-.545a4.486 4.486 0 0 0-.39-.238 2 2 0 0 0-1.797 0 4.499 4.499 0 0 0-.391.238l-.826.534c-.568.367-.852.55-1.009.629-2.48 1.246-5.28-.99-4.614-3.684.042-.17.165-.506.41-1.178a2 2 0 0 0-.657-2.36l-.1-.07a16.408 16.408 0 0 1-.501-.359c-2.355-1.854-1.159-5.636 1.834-5.799.088-.004.264-.004.617-.004h.43c.114 0 .17 0 .222-.003a2 2 0 0 0 1.737-1.215c.02-.047.04-.1.08-.207l.047-.133Zm29 0c.462-1.263.693-1.895.895-2.205 1.281-1.97 4.167-1.97 5.448 0 .202.31.433.942.895 2.205l.047.13c.04.11.06.164.081.213a1.999 1.999 0 0 0 1.733 1.212c.053.003.111.003.228.003h.498c.334 0 .501 0 .583.004 3.027.153 4.215 4 1.801 5.833-.065.05-.203.144-.478.332l-.095.066a2 2 0 0 0-.725 2.258l.042.116c.24.658.36.986.402 1.152.675 2.701-2.136 4.946-4.62 3.689-.153-.077-.43-.256-.984-.614l-.843-.545a4.445 4.445 0 0 0-.39-.238 2 2 0 0 0-1.797 0 4.499 4.499 0 0 0-.391.238l-.826.534c-.568.367-.852.55-1.009.629-2.48 1.246-5.28-.99-4.614-3.684.042-.17.165-.506.41-1.178a2 2 0 0 0-.657-2.36l-.1-.07a16.408 16.408 0 0 1-.501-.359c-2.355-1.854-1.159-5.636 1.834-5.799.088-.004.264-.004.617-.004h.43c.114 0 .17 0 .222-.003a2 2 0 0 0 1.737-1.215c.02-.047.04-.1.08-.207l.047-.133Zm29 0c.462-1.263.693-1.895.895-2.205 1.281-1.97 4.167-1.97 5.448 0 .202.31.433.942.895 2.205l.047.13c.04.11.06.164.081.213a1.999 1.999 0 0 0 1.733 1.212c.053.003.111.003.228.003h.498c.334 0 .501 0 .583.004 3.027.153 4.215 4 1.801 5.833-.065.05-.203.144-.478.332l-.095.066a2 2 0 0 0-.725 2.258l.042.116c.24.658.36.986.402 1.152.675 2.701-2.136 4.946-4.62 3.689-.153-.077-.43-.256-.984-.614l-.843-.545a4.35 4.35 0 0 0-.391-.238 1.999 1.999 0 0 0-1.796 0 4.35 4.35 0 0 0-.391.238l-.826.534c-.568.367-.852.55-1.009.629-2.48 1.246-5.28-.99-4.614-3.684.042-.17.165-.506.41-1.178a2 2 0 0 0-.756-2.43 15.471 15.471 0 0 1-.502-.359c-2.355-1.854-1.159-5.636 1.834-5.799.088-.004.264-.004.616-.004h.431c.114 0 .171 0 .222-.003a2 2 0 0 0 1.737-1.215c.021-.047.04-.1.079-.207l.048-.133Z"/></svg>