<svg xmlns="http://www.w3.org/2000/svg" width="247" height="40" fill="none"><path fill="#266AFB" d="m240.531 27.222-.49-1.347h-28.305l-.489 1.347c-1.054 2.899-1.581 4.348-1.673 5.146-.581 5.014 4.266 8.905 9.001 7.226.753-.268 2.043-1.105 4.621-2.78.41-.266.615-.4.817-.501a4.158 4.158 0 0 1 3.752 0c.201.102.406.235.816.502 2.579 1.674 3.868 2.511 4.622 2.779 4.735 1.679 9.582-2.212 9.001-7.226-.093-.798-.62-2.247-1.673-5.146Z"/><path fill="#266AFB" fill-opacity=".18" d="m233.548 8.006-.099-.271c-.964-2.654-1.447-3.981-1.867-4.632-2.678-4.137-8.704-4.137-11.381 0-.421.65-.903 1.978-1.868 4.631l-.101.278a9.682 9.682 0 0 1-.164.436 4.178 4.178 0 0 1-3.628 2.55c-.108.006-.227.006-.464.006-1.456 0-2.184 0-2.546.04-5.879.635-8.195 7.997-3.749 11.916.274.241.869.662 2.06 1.504l1.998 1.411h28.304l1.931-1.325c1.261-.866 1.892-1.299 2.177-1.545 4.501-3.887 2.223-11.3-3.674-11.96-.373-.04-1.137-.04-2.664-.04-.244 0-.365 0-.476-.007a4.177 4.177 0 0 1-3.62-2.545 8.623 8.623 0 0 1-.169-.447Z"/><path fill="#266AFB" d="M13.5 7.734c.964-2.653 1.446-3.98 1.867-4.63 2.677-4.138 8.703-4.138 11.38 0 .421.65.904 1.977 1.868 4.63l.099.272c.083.23.125.345.169.447a4.178 4.178 0 0 0 3.62 2.545c.11.006.233.006.476.006h1.04c.698 0 1.046 0 1.218.009 6.322.321 8.804 8.4 3.763 12.25a37.84 37.84 0 0 1-1 .697c-.102.07-.153.104-.197.137a4.212 4.212 0 0 0-1.515 4.742l.088.244c.501 1.38.752 2.07.839 2.419 1.41 5.671-4.46 10.384-9.65 7.746-.318-.162-.897-.538-2.054-1.29l-1.761-1.143c-.41-.267-.615-.4-.817-.502a4.157 4.157 0 0 0-3.752 0c-.201.102-.406.235-.817.502l-1.725 1.12c-1.186.77-1.779 1.155-2.106 1.32-5.18 2.618-11.03-2.077-9.638-7.736.088-.357.344-1.062.857-2.472.049-.134.073-.202.092-.258a4.213 4.213 0 0 0-1.465-4.697 7.474 7.474 0 0 0-.208-.148 34.567 34.567 0 0 1-1.047-.753c-4.92-3.893-2.421-11.836 3.83-12.177.184-.01.552-.01 1.288-.01h.9c.237 0 .356 0 .464-.005a4.178 4.178 0 0 0 3.628-2.551c.042-.1.083-.212.164-.436l.101-.278Zm51.19 0c.965-2.653 1.448-3.98 1.868-4.63 2.677-4.138 8.704-4.138 11.381 0 .42.65.903 1.977 1.868 4.63l.098.272c.084.23.126.345.17.447a4.178 4.178 0 0 0 3.62 2.545c.11.006.232.006.476.006h1.04c.697 0 1.046 0 1.217.009 6.322.321 8.804 8.4 3.763 12.25a37.84 37.84 0 0 1-1 .697c-.102.07-.152.104-.197.137a4.212 4.212 0 0 0-1.514 4.742c.017.052.04.116.087.244.502 1.38.753 2.07.84 2.419 1.41 5.671-4.461 10.384-9.65 7.746-.319-.162-.898-.538-2.055-1.29l-1.76-1.143c-.41-.267-.616-.4-.817-.502a4.157 4.157 0 0 0-3.752 0c-.202.102-.407.235-.817.502l-1.726 1.12c-1.185.77-1.778 1.155-2.106 1.32-5.18 2.618-11.03-2.077-9.637-7.736.088-.357.344-1.062.856-2.472.05-.134.074-.202.092-.258a4.213 4.213 0 0 0-1.465-4.697 8.742 8.742 0 0 0-.207-.148 34.572 34.572 0 0 1-1.048-.753c-4.92-3.893-2.42-11.836 3.83-12.177.184-.01.552-.01 1.288-.01h.9c.238 0 .356 0 .464-.005a4.178 4.178 0 0 0 3.628-2.551c.043-.1.083-.212.165-.436l.1-.278Zm51.196 0c.965-2.653 1.447-3.98 1.868-4.63 2.677-4.138 8.703-4.138 11.38 0 .421.65.903 1.977 1.868 4.63l.099.272c.083.23.125.345.169.447a4.177 4.177 0 0 0 3.619 2.545c.111.006.233.006.477.006h1.04c.697 0 1.046 0 1.217.009 6.323.321 8.804 8.4 3.763 12.25a34.45 34.45 0 0 1-1 .697c-.101.07-.152.104-.197.137a4.212 4.212 0 0 0-1.514 4.742c.017.052.041.116.087.244.502 1.38.753 2.07.839 2.419 1.412 5.671-4.46 10.384-9.649 7.746-.319-.162-.897-.538-2.054-1.29l-1.762-1.143c-.41-.267-.615-.4-.816-.502a4.157 4.157 0 0 0-3.752 0c-.201.102-.407.235-.817.502l-1.725 1.12c-1.186.77-1.779 1.155-2.106 1.32-5.181 2.618-11.03-2.077-9.638-7.736.088-.357.344-1.062.856-2.472a4.213 4.213 0 0 0-1.58-5.104 35.497 35.497 0 0 1-1.048-.752c-4.919-3.893-2.42-11.836 3.831-12.177.184-.01.552-.01 1.288-.01h.9c.237 0 .355 0 .463-.005a4.18 4.18 0 0 0 3.629-2.551c.042-.1.083-.212.164-.436l.101-.278Zm51.191 0c.965-2.653 1.447-3.98 1.868-4.63 2.677-4.138 8.703-4.138 11.381 0 .42.65.903 1.977 1.867 4.63l.099.272c.084.23.125.345.169.447a4.177 4.177 0 0 0 3.62 2.545c.111.006.233.006.476.006h1.04c.698 0 1.046 0 1.218.009 6.322.321 8.804 8.4 3.763 12.25a37.84 37.84 0 0 1-1 .697c-.102.07-.152.104-.197.137a4.212 4.212 0 0 0-1.514 4.742c.017.052.04.116.087.244.501 1.38.752 2.07.839 2.419 1.411 5.671-4.46 10.384-9.649 7.746-.319-.162-.898-.538-2.055-1.29l-1.761-1.143c-.41-.267-.615-.4-.817-.502a4.157 4.157 0 0 0-3.752 0c-.201.102-.406.235-.816.502l-1.726 1.12c-1.186.77-1.779 1.155-2.106 1.32-5.181 2.618-11.03-2.077-9.638-7.736.088-.357.345-1.062.857-2.472.049-.134.073-.202.092-.258a4.214 4.214 0 0 0-1.465-4.697 9.459 9.459 0 0 0-.208-.148 33.447 33.447 0 0 1-1.047-.753c-4.92-3.893-2.421-11.836 3.831-12.177.183-.01.551-.01 1.287-.01h.9c.237 0 .356 0 .464-.005a4.178 4.178 0 0 0 3.628-2.551c.042-.1.083-.212.164-.436l.101-.278Z"/></svg>