<svg xmlns="http://www.w3.org/2000/svg" width="246" height="40" fill="none"><path fill="#266AFB" d="M12.979 7.734c.965-2.653 1.447-3.98 1.868-4.63 2.678-4.138 8.705-4.138 11.383 0 .421.65.904 1.977 1.869 4.63l.098.272c.084.23.126.345.17.447a4.18 4.18 0 0 0 3.62 2.545 9.6 9.6 0 0 0 .476.006h1.04c.698 0 1.047 0 1.218.009 6.324.321 8.807 8.4 3.764 12.25a34.45 34.45 0 0 1-1 .697c-.102.07-.152.104-.197.137a4.212 4.212 0 0 0-1.514 4.742c.017.052.04.116.087.244.501 1.38.752 2.07.839 2.419 1.411 5.671-4.461 10.384-9.651 7.746-.32-.162-.898-.538-2.056-1.29l-1.761-1.143c-.41-.267-.615-.4-.817-.502a4.16 4.16 0 0 0-3.753 0c-.201.102-.406.235-.817.502l-1.726 1.12c-1.186.77-1.779 1.155-2.106 1.32-5.182 2.618-11.033-2.077-9.64-7.736.088-.357.344-1.062.857-2.472.049-.134.073-.202.092-.258a4.212 4.212 0 0 0-1.466-4.697 8.742 8.742 0 0 0-.207-.148A34.588 34.588 0 0 1 2.6 23.19C-2.32 19.298.18 11.355 6.432 11.014c.184-.01.552-.01 1.288-.01h.9c.238 0 .356 0 .464-.005a4.18 4.18 0 0 0 3.63-2.551c.042-.1.082-.212.164-.436l.1-.278Zm51.207 0c.965-2.653 1.447-3.98 1.868-4.63 2.678-4.138 8.706-4.138 11.383 0 .421.65.904 1.977 1.869 4.63l.098.272c.084.23.126.345.17.447a4.18 4.18 0 0 0 3.62 2.545 9.6 9.6 0 0 0 .476.006h1.04c.698 0 1.047 0 1.218.009 6.324.321 8.807 8.4 3.764 12.25a34.45 34.45 0 0 1-1 .697c-.102.07-.152.104-.197.137a4.212 4.212 0 0 0-1.514 4.742c.017.052.04.116.087.244.501 1.38.752 2.07.839 2.419 1.412 5.671-4.461 10.384-9.651 7.746-.32-.162-.898-.538-2.056-1.29l-1.761-1.143c-.41-.267-.615-.4-.817-.502a4.16 4.16 0 0 0-3.753 0c-.201.102-.406.235-.817.502l-1.726 1.12c-1.186.77-1.779 1.155-2.106 1.32-5.182 2.618-11.033-2.077-9.64-7.736.088-.357.344-1.062.857-2.472.049-.134.073-.202.092-.258a4.212 4.212 0 0 0-1.673-4.846 34.561 34.561 0 0 1-1.048-.752c-4.92-3.893-2.421-11.836 3.831-12.177.184-.01.552-.01 1.288-.01h.9c.238 0 .357 0 .464-.005a4.18 4.18 0 0 0 3.63-2.551c.042-.1.082-.212.164-.436l.1-.278Zm51.203 0c.965-2.653 1.447-3.98 1.868-4.63 2.678-4.138 8.706-4.138 11.384 0 .42.65.903 1.977 1.868 4.63l.098.272c.084.23.126.345.169.447a4.18 4.18 0 0 0 3.621 2.545c.111.006.233.006.477.006h1.04c.697 0 1.046 0 1.218.009 6.323.321 8.806 8.4 3.764 12.25a36.51 36.51 0 0 1-1.001.697c-.101.07-.152.104-.197.137a4.212 4.212 0 0 0-1.514 4.742c.017.052.04.116.087.244.502 1.38.752 2.07.839 2.419 1.412 5.671-4.461 10.384-9.651 7.746-.319-.162-.898-.538-2.055-1.29l-1.762-1.143c-.41-.267-.615-.4-.817-.502a4.16 4.16 0 0 0-3.753 0c-.201.102-.406.235-.817.502l-1.725 1.12c-1.187.77-1.78 1.155-2.107 1.32-5.182 2.618-11.033-2.077-9.64-7.736.088-.357.344-1.062.857-2.472.049-.134.073-.202.092-.258a4.213 4.213 0 0 0-1.673-4.846 35.497 35.497 0 0 1-1.048-.752c-4.921-3.893-2.421-11.836 3.832-12.177.183-.01.551-.01 1.288-.01h.9c.237 0 .356 0 .464-.005a4.18 4.18 0 0 0 3.629-2.551c.042-.1.083-.212.164-.436l.101-.278Zm51.207 0c.965-2.653 1.447-3.98 1.868-4.63 2.678-4.138 8.706-4.138 11.384 0 .42.65.903 1.977 1.868 4.63l.098.272c.084.23.126.345.169.447a4.18 4.18 0 0 0 3.621 2.545c.111.006.233.006.477.006h1.04c.697 0 1.046 0 1.218.009 6.323.321 8.806 8.4 3.764 12.25a36.86 36.86 0 0 1-1.001.697c-.101.07-.152.104-.197.137a4.212 4.212 0 0 0-1.514 4.742c.017.052.04.116.087.244.502 1.38.753 2.07.839 2.419 1.412 5.671-4.461 10.384-9.651 7.746-.319-.162-.898-.538-2.055-1.29l-1.762-1.143c-.41-.267-.615-.4-.817-.502a4.16 4.16 0 0 0-3.753 0c-.201.102-.406.235-.816.502l-1.726 1.12c-1.186.77-1.78 1.155-2.107 1.32-5.182 2.618-11.033-2.077-9.64-7.736.088-.357.344-1.062.857-2.472.049-.134.073-.202.092-.258a4.213 4.213 0 0 0-1.673-4.846 35.497 35.497 0 0 1-1.048-.752c-4.921-3.893-2.421-11.836 3.832-12.177.183-.01.551-.01 1.288-.01h.9c.237 0 .356 0 .464-.005a4.18 4.18 0 0 0 3.629-2.551c.042-.1.083-.212.164-.436l.101-.278Zm51.203 0c.965-2.653 1.448-3.98 1.868-4.63 2.678-4.138 8.706-4.138 11.384 0 .42.65.903 1.977 1.868 4.63l.098.272c.084.23.126.345.169.447a4.18 4.18 0 0 0 3.621 2.545c.111.006.233.006.477.006h1.04c.697 0 1.046 0 1.218.009 6.324.321 8.806 8.4 3.764 12.25a36.86 36.86 0 0 1-1.001.697c-.101.07-.152.104-.197.137a4.212 4.212 0 0 0-1.514 4.742c.017.052.041.116.087.244.502 1.38.753 2.07.839 2.419 1.412 5.671-4.461 10.384-9.651 7.746-.319-.162-.898-.538-2.055-1.29l-1.762-1.143c-.41-.267-.615-.4-.817-.502a4.157 4.157 0 0 0-3.752 0c-.202.102-.407.235-.817.502l-1.726 1.12c-1.186.77-1.779 1.155-2.107 1.32-5.182 2.618-11.032-2.077-9.64-7.736.088-.357.344-1.062.857-2.472.049-.134.073-.202.092-.258a4.213 4.213 0 0 0-1.673-4.846 35.497 35.497 0 0 1-1.048-.752c-4.921-3.893-2.421-11.836 3.832-12.177.184-.01.552-.01 1.288-.01h.9c.237 0 .356 0 .464-.005a4.18 4.18 0 0 0 3.629-2.551c.042-.1.083-.212.164-.436l.101-.278Z"/></svg>